<svg width="111" height="26" viewBox="0 0 111 26" fill="none" xmlns="http://www.w3.org/2000/svg">
<path d="M97.3651 8.75421C97.9801 8.75421 98.4887 8.43906 98.5597 8.03053L99.1688 1.22559C99.1688 0.554433 98.3704 0 97.3651 0C96.3597 0 95.5673 0.554433 95.5673 1.22559L96.1764 8.03053C96.2415 8.43322 96.75 8.75421 97.3651 8.75421ZM93.6394 10.8786C93.9469 10.3533 93.9233 9.75802 93.598 9.4954L87.9326 5.57351C87.3412 5.23502 86.4601 5.64355 85.9574 6.50146C85.4547 7.35937 85.5434 8.3165 86.1289 8.64916L92.4034 11.5322C92.7996 11.6781 93.3319 11.398 93.6394 10.8786ZM101.091 10.8727C101.398 11.398 101.931 11.6781 102.327 11.5322L108.601 8.64916C109.193 8.31066 109.275 7.35354 108.779 6.50146C108.276 5.64355 107.389 5.24085 106.803 5.57351L101.138 9.4954C100.813 9.75802 100.789 10.3533 101.091 10.8727ZM97.3651 17.2516C97.9801 17.2516 98.4887 17.5668 98.5597 17.9753L99.1688 24.7744C99.1688 25.4514 98.3704 26 97.3651 26C96.3597 26 95.5673 25.4514 95.5673 24.7744L96.1764 17.9753C96.2415 17.5668 96.75 17.2516 97.3651 17.2516ZM101.091 15.1273C101.398 14.602 101.931 14.3277 102.327 14.4678L108.601 17.3508C109.193 17.6893 109.275 18.6465 108.779 19.5044C108.276 20.3565 107.389 20.765 106.803 20.4323L101.138 16.5163C100.813 16.242 100.789 15.6525 101.091 15.1273ZM93.6394 15.1214C93.9469 15.6467 93.9233 16.242 93.598 16.5046L87.9326 20.4207C87.3412 20.7591 86.4601 20.3506 85.9574 19.4927C85.4547 18.6348 85.5434 17.6777 86.1289 17.3392L92.4034 14.4561C92.7996 14.3219 93.3319 14.5962 93.6394 15.1214Z" fill="#36348E"/>
<path d="M61.6276 16.4912C61.6276 16.7013 61.6098 16.9172 61.5507 17.104C61.3082 17.8919 60.4862 18.5514 59.4572 18.5514C58.5997 18.5514 57.9137 18.067 57.9137 17.0515C57.9137 15.4932 59.6524 15.0613 61.6276 15.073V16.4912ZM64.7264 13.7774C64.7264 11.2095 63.6146 8.9509 59.8594 8.9509C57.9315 8.9509 56.3998 9.48783 55.5659 9.96055L56.1751 12.0265C56.9379 11.548 58.1562 11.157 59.3094 11.157C61.2136 11.1511 61.527 12.225 61.527 12.9078V13.0712C57.3756 13.0654 54.7439 14.4836 54.7439 17.3783C54.7439 19.1466 56.0804 20.7983 58.4046 20.7983C59.8357 20.7983 61.0303 20.238 61.7458 19.3334H61.8168C61.8168 19.3334 62.2899 21.2943 64.9038 20.5415C64.7678 19.7244 64.7205 18.8548 64.7205 17.8102L64.7264 13.7774ZM0 5.45505C0 5.45505 2.71443 16.4328 3.14613 18.2129C3.65472 20.2905 4.56544 21.0609 7.19116 20.5415L8.88842 13.7365C9.32013 12.0441 9.60399 10.8418 9.88194 9.12015H9.92925C10.1244 10.8593 10.4024 12.0499 10.7513 13.7424C10.7513 13.7424 11.4432 16.8297 11.7921 18.4521C12.1469 20.0746 13.1345 21.0959 15.707 20.5415L19.7461 5.45505H16.4876L15.1097 11.9799C14.7372 13.8766 14.4001 15.3648 14.1458 17.0982H14.0985C13.8619 15.3765 13.5603 13.9525 13.1877 12.1024L11.7507 5.45505H8.35618L6.8186 11.9332C6.38098 13.9058 5.97884 15.4932 5.71863 17.1682H5.67132C5.4052 15.5866 5.05037 13.5906 4.67189 11.6822C4.67189 11.6822 3.76117 7.04832 3.44182 5.44922L0 5.45505ZM25.9142 16.4912C25.9142 16.7013 25.8965 16.9172 25.8373 17.104C25.5949 17.8919 24.7729 18.5514 23.7439 18.5514C22.8864 18.5514 22.2004 18.067 22.2004 17.0515C22.2004 15.4932 23.939 15.0613 25.9142 15.073V16.4912ZM29.019 13.7774C29.019 11.2095 27.9072 8.9509 24.1519 8.9509C22.224 8.9509 20.6923 9.48783 19.8585 9.96055L20.4676 12.0265C21.2305 11.548 22.4487 11.157 23.6019 11.157C25.5121 11.1511 25.8196 12.225 25.8196 12.9078V13.0712C21.6622 13.0654 19.0365 14.4836 19.0365 17.3783C19.0365 19.1466 20.373 20.7983 22.6971 20.7983C24.1283 20.7983 25.3228 20.238 26.0384 19.3334H26.1094C26.1094 19.3334 26.5825 21.2943 29.2023 20.5415C29.0663 19.7244 29.019 18.8548 29.019 17.8102V13.7774ZM34.1935 17.3374V5.45505H31.0888V20.5415H34.1935V17.3374ZM74.8153 5.45505V16.5846C74.8153 18.1195 75.111 19.1933 75.732 19.8528C76.2819 20.4306 77.1808 20.7983 78.2571 20.7983C79.1738 20.7983 80.0786 20.6232 80.5044 20.4714L80.463 18.0786C80.1436 18.1545 79.7829 18.2187 79.2861 18.2187C78.2276 18.2187 77.8727 17.5475 77.8727 16.1702V11.9098H80.5753V9.02094H77.8727V5.45505H74.8153ZM66.7962 9.20769V20.5415H70.0015V14.7404C70.0015 14.4252 70.0192 14.1509 70.0725 13.9058C70.309 12.6919 71.2493 11.9157 72.6036 11.9157C72.9761 11.9157 73.2423 11.9565 73.5261 11.9974V9.03261C73.2837 8.98592 73.1181 8.96257 72.8224 8.96257C71.6278 8.96257 70.2676 9.72127 69.694 11.3554H69.6053V9.21936H66.7962M36.3639 9.20769V20.5415H39.4864V13.8941C39.4864 13.5848 39.5218 13.2521 39.6342 12.9662C39.8944 12.295 40.5213 11.513 41.5325 11.513C42.7922 11.513 43.3835 12.5635 43.3835 14.0809V20.5415H46.5001V13.8124C46.5001 13.5148 46.5415 13.1588 46.6302 12.8961C46.8845 12.1374 47.5646 11.513 48.5049 11.513C49.7823 11.513 50.3914 12.546 50.3914 14.3318V20.5415H53.5139V13.8649C53.5139 10.3457 51.7042 8.9509 49.6581 8.9509C48.7533 8.9509 48.0377 9.17268 47.3931 9.5637C46.849 9.89636 46.3641 10.3632 45.9383 10.976H45.891C45.4001 9.75629 44.2351 8.9509 42.7271 8.9509C40.7874 8.9509 39.9122 9.9197 39.3799 10.7484H39.3267V9.20769H36.3639Z" fill="#36348E"/>
<path d="M110.174 19.9939H110.222C110.287 19.9939 110.322 19.9706 110.322 19.9297C110.322 19.8889 110.287 19.8655 110.227 19.8655C110.21 19.8655 110.186 19.8713 110.174 19.8713V19.9939ZM110.168 20.2974H110.003V19.7663C110.038 19.7605 110.127 19.7488 110.239 19.7488C110.364 19.7488 110.417 19.7663 110.458 19.7896C110.494 19.813 110.517 19.8538 110.517 19.9064C110.517 19.9589 110.464 20.0056 110.393 20.0289V20.0348C110.452 20.0523 110.488 20.0931 110.505 20.1748C110.523 20.2507 110.535 20.2857 110.541 20.3032H110.352C110.334 20.2857 110.328 20.239 110.316 20.1865C110.304 20.134 110.281 20.1048 110.222 20.1048H110.168V20.2974ZM110.233 19.5912C109.997 19.5912 109.814 19.7838 109.814 20.0289C109.814 20.2682 109.991 20.4608 110.239 20.4608C110.482 20.4666 110.665 20.2682 110.665 20.0231C110.665 19.7838 110.488 19.5912 110.233 19.5912ZM110.245 19.4453C110.576 19.4453 110.843 19.7021 110.843 20.0231C110.843 20.3441 110.576 20.6009 110.239 20.6009C109.902 20.6009 109.636 20.3441 109.636 20.0231C109.636 19.7021 109.902 19.4453 110.245 19.4453Z" fill="#36348E"/>
</svg>
