<svg width="57" height="24" viewBox="0 0 57 24" fill="none" xmlns="http://www.w3.org/2000/svg">
<path fill-rule="evenodd" clip-rule="evenodd" d="M57 12.4003C57 8.29882 55.0367 5.0625 51.2842 5.0625C47.5158 5.0625 45.2358 8.29881 45.2358 12.3682C45.2358 17.1907 47.9275 19.6259 51.7908 19.6259C53.675 19.6259 55.1 19.1933 56.1767 18.5845V15.3803C55.1 15.925 53.865 16.2614 52.2975 16.2614C50.7617 16.2614 49.4 15.7167 49.2258 13.8262H56.9683C56.9683 13.6179 57 12.7848 57 12.4003ZM49.1783 10.8783C49.1783 9.06784 50.2708 8.31484 51.2683 8.31484C52.2342 8.31484 53.2633 9.06784 53.2633 10.8783H49.1783Z" fill="#36348E"/>
<path fill-rule="evenodd" clip-rule="evenodd" d="M39.1242 5.0625C37.5725 5.0625 36.575 5.79948 36.0208 6.31217L35.815 5.31884H32.3317V23.9997L36.29 23.1506L36.3058 18.6166C36.8758 19.0331 37.715 19.6259 39.1083 19.6259C41.9425 19.6259 44.5233 17.3188 44.5233 12.2401C44.5075 7.59388 41.895 5.0625 39.1242 5.0625ZM38.1742 16.1012C37.24 16.1012 36.6858 15.7648 36.3058 15.3482L36.29 9.40429C36.7017 8.93967 37.2717 8.61924 38.1742 8.61924C39.615 8.61924 40.6125 10.2534 40.6125 12.3522C40.6125 14.4991 39.6308 16.1012 38.1742 16.1012Z" fill="#36348E"/>
<path fill-rule="evenodd" clip-rule="evenodd" d="M26.885 4.11749L30.8592 3.25234V0L26.885 0.849132V4.11749Z" fill="#36348E"/>
<path d="M30.8592 5.33594H26.885V19.3546H30.8592V5.33594Z" fill="#36348E"/>
<path fill-rule="evenodd" clip-rule="evenodd" d="M22.6258 6.52306L22.3725 5.33748H18.9525V19.3562H22.9108V9.8555C23.845 8.62186 25.4283 8.84616 25.9192 9.02239V5.33748C25.4125 5.14522 23.56 4.79275 22.6258 6.52306Z" fill="#36348E"/>
<path fill-rule="evenodd" clip-rule="evenodd" d="M14.7092 1.85938L10.8459 2.69249L10.83 15.5256C10.83 17.8968 12.5875 19.6431 14.9309 19.6431C16.2292 19.6431 17.1792 19.4028 17.7017 19.1144V15.862C17.195 16.0703 14.6934 16.8073 14.6934 14.4361V8.74856H17.7017V5.33601H14.6934L14.7092 1.85938Z" fill="#36348E"/>
<path fill-rule="evenodd" clip-rule="evenodd" d="M4.00583 9.40429C4.00583 8.77946 4.5125 8.53913 5.35167 8.53913C6.555 8.53913 8.075 8.90763 9.27833 9.5645V5.79948C7.96417 5.27078 6.66583 5.0625 5.35167 5.0625C2.1375 5.0625 0 6.76076 0 9.59655C0 14.0184 6.01667 13.2975 6.01667 15.204C6.01667 15.941 5.38333 16.1813 4.49667 16.1813C3.1825 16.1813 1.50417 15.6366 0.174167 14.8996V18.7127C1.64667 19.3536 3.135 19.6259 4.49667 19.6259C7.79 19.6259 10.0542 17.9757 10.0542 15.1079C10.0383 10.3495 4.00583 11.1987 4.00583 9.40429Z" fill="#36348E"/>
</svg>
