<svg width="57" height="22" viewBox="0 0 57 22" fill="none" xmlns="http://www.w3.org/2000/svg">
<path d="M4.10418 0.304688H0V4.40887H4.10418V0.304688Z" fill="#36348E"/>
<path d="M4.00258 21.6928V6.90882H0.115784V21.6928H4.00258ZM29.828 21.837V18.2148C29.2585 18.2148 28.7765 18.1864 28.4245 18.1274C28.0157 18.0683 27.7085 17.9218 27.5053 17.7186C27.2998 17.513 27.1698 17.2224 27.0966 16.842C27.0375 16.4758 27.0091 15.9938 27.0091 15.4102V10.238H29.828V6.90645H27.0091V1.13887H23.1105V15.4409C23.1105 16.653 23.2121 17.6761 23.4177 18.4936C23.6232 19.297 23.9729 19.9538 24.455 20.45C24.937 20.9462 25.5796 21.2983 26.3546 21.5156C27.1438 21.7354 28.1362 21.837 29.32 21.837H29.828ZM52.1493 21.6928V0H48.2483V21.6928H52.1493ZM19.356 8.35485C18.2762 7.18526 16.757 6.60165 14.8266 6.60165C13.8909 6.60165 13.045 6.79068 12.27 7.17109C11.5116 7.5515 10.8523 8.07604 10.342 8.74944L10.1222 9.02588V8.77779V6.90882H6.28032V21.6928H10.1506V13.82V14.3611C10.1506 14.2737 10.1506 14.1862 10.1506 14.0988C10.1955 12.7118 10.531 11.6888 11.1737 11.0319C11.8612 10.3301 12.693 9.98045 13.6428 9.98045C14.7675 9.98045 15.6299 10.3301 16.1993 11.0035C16.7546 11.6746 17.0476 12.6244 17.0476 13.8365V13.8649V21.681H20.9769V13.2955C20.9911 11.1878 20.4358 9.52443 19.356 8.35485ZM46.2328 14.2713C46.2328 13.2057 46.0438 12.2109 45.6776 11.2776C45.2972 10.3585 44.7726 9.53861 44.1134 8.83922C43.4424 8.13747 42.639 7.59639 41.7034 7.20417C40.7677 6.80958 39.7304 6.62056 38.6057 6.62056C37.5401 6.62056 36.5312 6.82612 35.5955 7.21834C34.6599 7.62711 33.8423 8.16819 33.1571 8.8534C32.4696 9.54097 31.9143 10.3585 31.5221 11.2918C31.1133 12.2275 30.9243 13.234 30.9243 14.302C30.9243 15.3676 31.1133 16.3765 31.4937 17.3122C31.8741 18.2479 32.4129 19.0654 33.0863 19.7506C33.7573 20.4382 34.5914 20.9934 35.5554 21.3857C36.5194 21.7944 37.585 22 38.7262 22C42.0271 22 44.0733 20.4949 45.2995 19.0938L42.4949 16.9602C41.9113 17.6619 40.5078 18.6117 38.7546 18.6117C37.6583 18.6117 36.7533 18.3637 36.0657 17.8533C35.3782 17.3571 34.9127 16.6554 34.6622 15.7929L34.6173 15.6606H46.2305L46.2328 14.2713ZM34.6504 12.9127C34.6504 11.8329 35.8933 9.94737 38.5656 9.9332C41.2379 9.9332 42.4949 11.8187 42.4949 12.8985L34.6504 12.9127Z" fill="#36348E"/>
<path d="M56.5913 19.7633C56.5181 19.5885 56.4165 19.442 56.2842 19.3097C56.1518 19.1773 56.0077 19.0757 55.8305 19.0025C55.6556 18.9292 55.4643 18.8867 55.2752 18.8867C55.0697 18.8867 54.8948 18.9316 54.72 19.0025C54.5451 19.0757 54.3986 19.1773 54.2663 19.3097C54.134 19.442 54.0324 19.5861 53.9592 19.7633C53.8859 19.9382 53.8434 20.1295 53.8434 20.3186C53.8434 20.5241 53.8883 20.699 53.9592 20.8738C54.03 21.0487 54.134 21.1952 54.2663 21.3275C54.3986 21.4598 54.5428 21.5614 54.72 21.6346C54.8948 21.7079 55.0862 21.7504 55.2752 21.7504C55.4808 21.7504 55.6556 21.7055 55.8305 21.6346C56.0053 21.5614 56.1518 21.4598 56.2842 21.3275C56.4165 21.1952 56.5181 21.051 56.5913 20.8738C56.6622 20.699 56.7071 20.51 56.7071 20.3186C56.7071 20.1295 56.6622 19.9405 56.5913 19.7633ZM56.3574 20.7864C56.2983 20.9329 56.2109 21.0629 56.1093 21.1668C56.0077 21.2684 55.8754 21.3558 55.7289 21.4149C55.5824 21.474 55.4359 21.5023 55.2611 21.5023C55.1004 21.5023 54.9397 21.474 54.7932 21.4149C54.6467 21.3558 54.5168 21.2684 54.4128 21.1668C54.3089 21.0652 54.2238 20.9329 54.1647 20.7864C54.1057 20.6399 54.0773 20.4934 54.0773 20.3186C54.0773 20.1579 54.1057 19.9972 54.1647 19.8507C54.2238 19.7042 54.3112 19.5743 54.4128 19.4703C54.5144 19.3687 54.6467 19.2813 54.7932 19.2222C54.9397 19.1632 55.0862 19.1348 55.2611 19.1348C55.4217 19.1348 55.5824 19.1632 55.7289 19.2222C55.8754 19.2813 56.0053 19.3687 56.1093 19.4703C56.2109 19.5719 56.2983 19.7042 56.3574 19.8507C56.4165 19.9972 56.4448 20.1437 56.4448 20.3186C56.459 20.4958 56.4141 20.6399 56.3574 20.7864ZM55.5375 20.4367C55.6533 20.4225 55.7431 20.3776 55.814 20.3044C55.8872 20.2311 55.9297 20.1295 55.9297 19.9831C55.9297 19.8224 55.8848 19.7066 55.7832 19.6168C55.6958 19.5294 55.5351 19.4845 55.3461 19.4845H54.7034V21.1361H55.0106V20.4651H55.2303L55.6391 21.1361H55.9604L55.5375 20.4367ZM55.3768 20.2028C55.3319 20.2028 55.2894 20.2028 55.2303 20.2028H55.0106V19.735H55.2303C55.2752 19.735 55.3178 19.735 55.3768 19.735C55.4217 19.735 55.4643 19.7491 55.5092 19.7633C55.554 19.7775 55.5824 19.8082 55.5966 19.8366C55.6108 19.8649 55.6249 19.9098 55.6249 19.9689C55.6249 20.0279 55.6108 20.0705 55.5966 20.1012C55.5682 20.1295 55.5375 20.1603 55.5092 20.1744C55.4643 20.1886 55.4217 20.2028 55.3768 20.2028Z" fill="#36348E"/>
</svg>
