<svg width="79" height="24" viewBox="0 0 79 24" fill="none" xmlns="http://www.w3.org/2000/svg">
<g clip-path="url(#clip0_952_11283)">
<path fill-rule="evenodd" clip-rule="evenodd" d="M49.0101 18.769C44.4192 22.1802 37.7651 24.0002 32.036 24.0002C24.003 24.0002 16.7711 21.005 11.3 16.0234C10.8701 15.6316 11.2552 15.0977 11.7711 15.4028C17.6755 18.866 24.9761 20.9495 32.5175 20.9495C37.6035 20.9495 43.1984 19.8887 48.3429 17.6874C49.1201 17.3546 49.77 18.2004 49.0101 18.769Z" fill="#36348E"/>
<path fill-rule="evenodd" clip-rule="evenodd" d="M50.9186 16.568C50.334 15.8123 47.0396 16.2109 45.5609 16.3877C45.1104 16.4432 45.0416 16.048 45.4474 15.7637C48.0712 13.9021 52.3767 14.4394 52.8787 15.0635C53.3808 15.6909 52.748 20.0416 50.2824 22.1182C49.9041 22.4371 49.5431 22.2673 49.7116 21.8443C50.2652 20.4507 51.5066 17.3272 50.9186 16.568Z" fill="#36348E"/>
<path fill-rule="evenodd" clip-rule="evenodd" d="M45.6641 2.62269V0.813075C45.6641 0.539205 45.8704 0.355469 46.118 0.355469H54.1545C54.4124 0.355469 54.6187 0.542673 54.6187 0.813075V2.36269C54.6153 2.6227 54.3987 2.96243 54.0135 3.49977L49.8491 9.4937C51.3966 9.45557 53.03 9.68784 54.4331 10.4852C54.7494 10.6655 54.8354 10.9289 54.8595 11.1889V13.1199C54.8595 13.3834 54.5706 13.6919 54.268 13.5324C51.7955 12.2255 48.5114 12.0833 45.7775 13.5463C45.499 13.6988 45.2067 13.3937 45.2067 13.1303V11.2964C45.2067 11.0017 45.2101 10.4991 45.5024 10.0518L50.3271 3.07684H46.1283C45.8704 3.07684 45.6641 2.8931 45.6641 2.62269Z" fill="#36348E"/>
<path fill-rule="evenodd" clip-rule="evenodd" d="M16.3481 13.9116H13.9031C13.6693 13.8943 13.4836 13.7175 13.4664 13.4922V0.842171C13.4664 0.589102 13.6762 0.388035 13.9375 0.388035H16.2175C16.4547 0.398429 16.6439 0.582167 16.6611 0.81097V2.46459H16.7058C17.3007 0.866435 18.4183 0.121094 19.9245 0.121094C21.4548 0.121094 22.4108 0.866435 23.0985 2.46459C23.69 0.866435 25.0346 0.121094 26.4755 0.121094C27.5002 0.121094 28.6213 0.547497 29.3056 1.50431C30.0793 2.56859 29.9212 4.11474 29.9212 5.47023L29.9177 13.454C29.9177 13.7071 29.7079 13.9116 29.4466 13.9116H27.005C26.7609 13.8943 26.5649 13.6967 26.5649 13.454V6.74944C26.5649 6.21557 26.613 4.88435 26.4961 4.37821C26.3138 3.52887 25.7671 3.28967 25.0587 3.28967C24.4672 3.28967 23.8482 3.68834 23.5972 4.32621C23.3461 4.96409 23.3702 6.03183 23.3702 6.74944V13.454C23.3702 13.7071 23.1604 13.9116 22.8991 13.9116H20.4575C20.2099 13.8943 20.0174 13.6967 20.0174 13.454L20.0139 6.74944C20.0139 5.33849 20.2443 3.26193 18.5077 3.26193C16.7505 3.26193 16.8192 5.28649 16.8192 6.74944V13.454C16.8192 13.7071 16.6095 13.9116 16.3481 13.9116Z" fill="#36348E"/>
<path fill-rule="evenodd" clip-rule="evenodd" d="M61.5377 0.121094C65.1656 0.121094 67.1292 3.26193 67.1292 7.25557C67.1292 11.114 64.9593 14.1751 61.5377 14.1751C57.975 14.1751 56.0356 11.0343 56.0356 7.12037C56.0356 3.1822 57.9991 0.121094 61.5377 0.121094ZM61.5583 2.70379C59.7564 2.70379 59.6429 5.17901 59.6429 6.7217C59.6429 8.26785 59.6188 11.5682 61.5377 11.5682C63.4325 11.5682 63.5219 8.90573 63.5219 7.28331C63.5219 6.21556 63.4772 4.93982 63.1573 3.92754C62.8822 3.047 62.3355 2.70379 61.5583 2.70379Z" fill="#36348E"/>
<path fill-rule="evenodd" clip-rule="evenodd" d="M71.8335 13.9116H69.3988C69.1546 13.8943 68.9586 13.6967 68.9586 13.454L68.9552 0.800566C68.9758 0.568297 69.1787 0.388035 69.4263 0.388035H71.6925C71.9057 0.398429 72.0811 0.544031 72.1292 0.741633V2.67606H72.1739C72.8583 0.946173 73.8177 0.121094 75.5062 0.121094C76.6031 0.121094 77.6726 0.519767 78.3604 1.61178C79 2.62406 79 4.32621 79 5.54996V13.513C78.9725 13.7348 78.7696 13.9116 78.5289 13.9116H76.077C75.8535 13.8943 75.6678 13.7279 75.6437 13.513V6.64197C75.6437 5.25875 75.8019 3.23419 74.1134 3.23419C73.5185 3.23419 72.9717 3.63634 72.7001 4.24647C72.3562 5.01955 72.3115 5.78916 72.3115 6.64197V13.454C72.3081 13.7071 72.0948 13.9116 71.8335 13.9116Z" fill="#36348E"/>
<path fill-rule="evenodd" clip-rule="evenodd" d="M39.2575 7.86942C39.2575 8.8297 39.2816 9.63051 38.8002 10.4833C38.4116 11.1767 37.7926 11.6031 37.1083 11.6031C36.1695 11.6031 35.6193 10.882 35.6193 9.81771C35.6193 7.71689 37.4866 7.33555 39.2575 7.33555V7.86942ZM41.7232 13.8772C41.5616 14.0228 41.3277 14.0332 41.1455 13.9362C40.3339 13.2567 40.186 12.9412 39.7424 12.2929C38.4013 13.6727 37.4487 14.0852 35.7121 14.0852C33.6523 14.0852 32.0532 12.806 32.0532 10.2441C32.0532 8.24383 33.1261 6.88141 34.6599 6.21581C35.9872 5.62646 37.8408 5.52246 39.2575 5.35953V5.04059C39.2575 4.45472 39.3023 3.76138 38.9584 3.25524C38.6626 2.8011 38.0918 2.6139 37.5863 2.6139C36.6544 2.6139 35.8256 3.09577 35.6227 4.09418C35.5815 4.31605 35.4198 4.53445 35.1963 4.54485L32.827 4.28831C32.6275 4.24325 32.404 4.08032 32.4624 3.77178C33.0058 0.873618 35.6055 0 37.9302 0C39.12 0 40.6743 0.318937 41.6131 1.22721C42.803 2.34696 42.6895 3.84111 42.6895 5.467V9.30811C42.6895 10.4625 43.164 10.9687 43.6111 11.5927C43.7658 11.8145 43.8002 12.0815 43.6008 12.2479C43.1021 12.6673 42.2149 13.4474 41.7266 13.8842L41.7232 13.8772Z" fill="#36348E"/>
<path fill-rule="evenodd" clip-rule="evenodd" d="M7.20433 7.86942C7.20433 8.8297 7.2284 9.63051 6.74696 10.4833C6.35838 11.1767 5.74283 11.6031 5.05506 11.6031C4.11627 11.6031 3.56949 10.882 3.56949 9.81771C3.56949 7.71689 5.43677 7.33555 7.20433 7.33555V7.86942ZM9.66996 13.8772C9.50834 14.0228 9.2745 14.0332 9.09224 13.9362C8.28068 13.2567 8.13625 12.9412 7.6892 12.2929C6.34806 13.6727 5.39895 14.0852 3.6589 14.0852C1.60249 14.0852 0 12.806 0 10.2441C0 8.24383 1.07635 6.88141 2.60662 6.21581C3.93401 5.62646 5.78753 5.52246 7.20433 5.35953V5.04059C7.20433 4.45472 7.24903 3.76138 6.90859 3.25524C6.60941 2.8011 6.03857 2.6139 5.5365 2.6139C4.60458 2.6139 3.77238 3.09577 3.56949 4.09418C3.52823 4.31605 3.3666 4.53445 3.14652 4.54485L0.773734 4.28831C0.574282 4.24325 0.354197 4.08032 0.409219 3.77178C0.955991 0.873618 3.5523 0 5.87694 0C7.06677 0 8.62112 0.318937 9.55992 1.22721C10.7498 2.34696 10.6363 3.84111 10.6363 5.467V9.30811C10.6363 10.4625 11.1108 10.9687 11.5579 11.5927C11.7161 11.8145 11.7504 12.0815 11.551 12.2479C11.0524 12.6673 10.1652 13.4474 9.67684 13.8842L9.66996 13.8772Z" fill="#36348E"/>
</g>
<defs>
<clipPath id="clip0_952_11283">
<rect width="79" height="24" fill="white"/>
</clipPath>
</defs>
</svg>
